<svg width="36" height="36" viewBox="0 0 36 36" fill="none" xmlns="http://www.w3.org/2000/svg">
<path d="M17.0026 1.88204C17.0915 0.644262 18.9085 0.644263 18.9974 1.88204L19.6938 11.5744C19.7528 12.3956 20.7235 12.7977 21.3459 12.2587L28.6918 5.89758C29.63 5.08523 30.9148 6.37003 30.1024 7.30816L23.7413 14.6541C23.2023 15.2765 23.6044 16.2472 24.4256 16.3062L34.118 17.0026C35.3557 17.0915 35.3557 18.9085 34.118 18.9974L24.4256 19.6938C23.6044 19.7528 23.2023 20.7235 23.7413 21.3459L30.1024 28.6918C30.9148 29.63 29.63 30.9148 28.6918 30.1024L21.3459 23.7413C20.7235 23.2023 19.7528 23.6044 19.6938 24.4256L18.9974 34.118C18.9085 35.3557 17.0915 35.3557 17.0026 34.118L16.3062 24.4256C16.2472 23.6044 15.2765 23.2023 14.6541 23.7413L7.30816 30.1024C6.37003 30.9148 5.08523 29.63 5.89758 28.6918L12.2587 21.3459C12.7977 20.7235 12.3956 19.7528 11.5744 19.6938L1.88204 18.9974C0.644262 18.9085 0.644263 17.0915 1.88204 17.0026L11.5744 16.3062C12.3956 16.2472 12.7977 15.2765 12.2587 14.6541L5.89759 7.30816C5.08523 6.37004 6.37004 5.08523 7.30816 5.89759L14.6541 12.2587C15.2765 12.7977 16.2472 12.3956 16.3062 11.5744L17.0026 1.88204Z" fill="#FFB800"/>
</svg>
